<?xml version="1.0" standalone="no"?>
<!DOCTYPE svg PUBLIC "-//W3C//DTD SVG 20010904//EN"
 "http://www.w3.org/TR/2001/REC-SVG-20010904/DTD/svg10.dtd">
<svg version="1.0" xmlns="http://www.w3.org/2000/svg"
 width="260.000000pt" height="260.000000pt" viewBox="0 0 260.000000 260.000000"
 preserveAspectRatio="xMidYMid meet">
<metadata>
Created by potrace 1.11, written by Peter Selinger 2001-2013
</metadata>
<g transform="translate(0.000000,260.000000) scale(0.100000,-0.100000)"
fill="#000000" stroke="none">
<path d="M399 2583 c-24 -30 -79 -111 -79 -117 0 -6 -23 -36 -46 -60 -6 -7
-19 -28 -29 -46 -10 -19 -31 -51 -46 -70 -16 -19 -29 -40 -29 -47 0 -7 -13
-28 -30 -46 -16 -19 -27 -37 -23 -41 3 -3 2 -6 -4 -6 -6 0 -14 -11 -17 -24 -3
-13 -18 -42 -32 -64 -15 -22 -25 -42 -24 -44 2 -2 -7 -22 -19 -45 -20 -40 -21
-56 -21 -280 0 -131 3 -247 6 -259 5 -21 90 -81 106 -77 4 2 8 -1 8 -5 0 -5 6
-9 13 -9 38 -1 108 -13 119 -20 15 -9 558 -14 573 -5 5 4 15 7 20 7 6 0 35 5
65 10 30 5 63 8 73 6 9 -1 17 2 17 6 0 5 8 9 18 9 38 1 140 23 157 33 6 3 19
6 30 7 11 0 40 7 65 14 25 7 52 15 60 16 8 2 50 15 93 29 43 14 83 23 88 20 5
-4 9 -2 9 3 0 5 26 17 58 27 31 10 73 26 92 35 19 10 38 18 43 19 17 2 29 6
62 21 17 7 37 14 46 16 9 2 29 8 45 14 16 6 31 11 33 10 2 -1 7 3 10 9 4 5 22
13 40 16 32 5 29 1 -62 -90 -53 -52 -99 -95 -102 -95 -4 0 -13 -7 -21 -15 -9
-8 -12 -15 -8 -15 4 0 -7 -11 -25 -25 -19 -13 -41 -32 -51 -42 -20 -22 -97
-85 -116 -96 -8 -5 -12 -12 -9 -18 4 -5 0 -9 -7 -9 -7 0 -34 -19 -60 -43 -26
-23 -67 -58 -90 -78 -86 -74 -153 -130 -163 -137 -28 -21 -101 -78 -105 -82
-10 -11 -68 -55 -90 -70 -12 -8 -30 -22 -39 -31 -9 -8 -29 -23 -45 -33 -16
-10 -40 -29 -55 -42 -14 -12 -30 -24 -36 -26 -9 -2 -29 -17 -59 -43 -6 -6 -47
-34 -91 -63 -44 -28 -84 -56 -90 -60 -38 -29 -75 -52 -75 -47 0 6 -19 -8 -77
-55 -7 -6 -17 -10 -23 -10 -5 0 -10 -5 -10 -10 0 -6 -3 -9 -7 -8 -5 1 -38 -17
-75 -41 -37 -23 -70 -42 -74 -41 -4 1 -11 -5 -16 -14 -5 -9 -13 -14 -19 -11
-5 4 -9 1 -9 -6 0 -7 -3 -9 -7 -6 -3 4 -16 -1 -27 -12 -23 -21 -109 -71 -168
-99 l-38 -17 0 -77 0 -78 354 0 354 0 53 33 c30 17 65 40 79 50 14 10 68 45
120 79 52 34 102 70 111 80 9 10 18 15 21 13 3 -3 11 1 18 10 7 8 19 15 28 15
8 0 12 3 9 6 -4 4 15 21 41 37 26 17 49 34 52 37 3 4 30 25 60 47 91 69 162
124 183 144 12 10 24 19 27 19 4 0 29 20 56 45 27 25 52 45 56 45 4 0 27 20
52 45 25 25 46 43 46 40 0 -2 19 14 43 36 23 23 54 48 70 57 15 9 27 21 27 27
0 6 13 18 28 27 15 9 46 33 67 53 22 20 63 57 92 83 78 71 463 450 463 457 0
3 20 25 45 48 l45 44 0 402 0 403 -33 -5 c-33 -4 -45 -8 -167 -47 -36 -11 -69
-22 -75 -23 -40 -12 -64 -20 -91 -33 -17 -7 -40 -15 -50 -17 -11 -1 -25 -6
-31 -10 -7 -5 -13 -5 -13 0 0 4 -4 3 -8 -2 -6 -10 -169 -75 -186 -75 -4 0 -27
-9 -51 -20 -24 -11 -52 -22 -62 -24 -10 -1 -35 -10 -55 -20 -21 -9 -45 -17
-55 -19 -10 -2 -34 -11 -53 -20 -20 -10 -46 -19 -59 -22 -12 -2 -36 -11 -54
-20 -18 -9 -39 -18 -47 -20 -8 -2 -60 -21 -115 -41 -55 -20 -109 -37 -120 -39
-11 -2 -20 -4 -20 -5 0 -1 -7 -3 -15 -5 -8 -3 -46 -13 -85 -25 -38 -11 -88
-23 -110 -26 -21 -4 -56 -12 -77 -20 -26 -9 -38 -10 -38 -2 0 7 -4 7 -12 1 -7
-6 -20 -11 -28 -11 -8 0 -31 -5 -50 -10 -19 -5 -45 -8 -57 -7 -13 1 -23 -1
-23 -4 0 -3 -60 -6 -133 -7 -106 -1 -134 2 -134 13 0 7 4 13 9 13 4 0 8 9 8
19 0 11 8 27 17 37 10 10 18 20 19 23 2 19 39 79 46 75 4 -3 8 2 8 10 0 9 5
16 12 16 6 0 9 3 5 6 -6 6 96 164 131 199 6 8 12 17 12 22 0 4 10 19 21 33 11
14 35 48 53 75 28 42 96 121 96 112 0 -2 31 27 70 64 38 36 70 69 70 73 0 3
-148 6 -328 6 -301 0 -330 -1 -343 -17z"/>
<path d="M2570 968 c-14 -17 -31 -37 -37 -44 -7 -7 -13 -18 -13 -24 0 -6 -3
-9 -7 -7 -9 4 -44 -29 -37 -35 2 -3 -15 -25 -39 -50 -51 -55 -77 -86 -77 -94
0 -3 -16 -24 -35 -47 -19 -22 -35 -44 -35 -49 0 -9 -11 -24 -42 -59 -10 -10
-18 -26 -18 -34 0 -8 -4 -15 -8 -15 -5 0 -16 -15 -25 -32 -9 -18 -21 -40 -27
-48 -15 -22 -44 -94 -42 -102 1 -5 -2 -8 -7 -8 -5 0 -13 -10 -17 -22 -4 -13
-16 -43 -27 -68 -11 -25 -21 -47 -22 -50 0 -3 -6 -15 -13 -27 -7 -13 -11 -23
-8 -23 3 0 -6 -24 -19 -52 -14 -29 -25 -59 -25 -65 0 -10 60 -13 265 -13 170
0 265 4 265 10 0 6 0 13 -1 16 0 4 3 10 8 13 11 8 37 63 35 74 -1 4 3 7 10 7
6 0 8 3 5 7 -4 3 0 17 8 30 13 19 15 80 13 432 l-3 410 -25 -31z"/>
</g>
</svg>
