<?xml version="1.0" encoding="utf-8"?>
<!-- Generator: Adobe Illustrator 24.0.0, SVG Export Plug-In . SVG Version: 6.00 Build 0)  -->
<!DOCTYPE svg PUBLIC "-//W3C//DTD SVG 1.1//EN" "http://www.w3.org/Graphics/SVG/1.1/DTD/svg11.dtd" [
	<!ENTITY ns_extend "http://ns.adobe.com/Extensibility/1.0/">
	<!ENTITY ns_ai "http://ns.adobe.com/AdobeIllustrator/10.0/">
	<!ENTITY ns_graphs "http://ns.adobe.com/Graphs/1.0/">
	<!ENTITY ns_vars "http://ns.adobe.com/Variables/1.0/">
	<!ENTITY ns_imrep "http://ns.adobe.com/ImageReplacement/1.0/">
	<!ENTITY ns_sfw "http://ns.adobe.com/SaveForWeb/1.0/">
	<!ENTITY ns_custom "http://ns.adobe.com/GenericCustomNamespace/1.0/">
	<!ENTITY ns_adobe_xpath "http://ns.adobe.com/XPath/1.0/">
]>
<svg version="1.1" id="Layer_1" xmlns:x="&ns_extend;" xmlns:i="&ns_ai;" xmlns:graph="&ns_graphs;"
	 xmlns="http://www.w3.org/2000/svg" xmlns:xlink="http://www.w3.org/1999/xlink" x="0px" y="0px" viewBox="0 0 777.89 408.15"
	 style="enable-background:new 0 0 777.89 408.15;" xml:space="preserve">
<metadata>
	<sfw  xmlns="&ns_sfw;">
		<slices></slices>
		<sliceSourceBounds  bottomLeftOrigin="true" height="408.15" width="777.89" x="240.06" y="95.48"></sliceSourceBounds>
	</sfw>
</metadata>
<path d="M0,315.45c1.93,0.51,2.91-1.34,4.51-1.8c4.1-1.16,8.22-2.42,12.48-2.23c6.77,0.31,12.9-2.03,19.05-4.17
	c6.92-2.41,13.87-4.61,21.13-5.69c1.4-0.21,2.79-0.48,4.18-0.73c2.54-0.47,4.3-2.08,4.81-4.45c1.26-5.86,5.55-8.3,10.62-9.9
	c2.2-0.69,4.5-1.06,6.78-1.46c15.9-2.83,31.91-3.79,48.03-2.83c2.97,0.18,5.83,0.93,8.73,1.54c5.95,1.26,11.94,1.76,18.01,0.97
	c1.49-0.19,2.84-0.63,3.76-1.71c2.61-3.08,6.13-4.04,9.87-4.53c9.67-1.26,19.22-0.64,28.73,1.6c4.65,1.09,9.46,1.07,14.16-0.15
	c1.51-0.39,3-0.73,4.56-0.68c0.63,0.02,1.53-0.08,1.74,0.55c0.81,2.41,2.76,1.83,4.46,1.8c10.55-0.16,21.1,0.1,31.65-0.67
	c10.27-0.75,20.48-2.07,30.73-2.96c6.27-0.54,12.59-0.82,18.79-2.07c2.84-0.57,2.87-0.58,2.89-3.39c0.04-6.81,0.3-13.64-1.51-20.31
	c-0.4-1.48-0.66-3.03-1.28-4.42c-0.99-2.21-1.74-4.12,0.36-6.28c1.05-1.08,0.48-2.97,0.46-4.5c-0.06-4.8-1.47-9.39-2.25-14.07
	c-1.06-6.33-2.41-12.61-3.25-18.98c-0.35-2.7,0.13-4.96,2.08-7.05c2.45-2.62,3.1-6.09,3.8-9.49c2.68-12.96,2.54-26.07,2.1-39.2
	c-0.09-2.83-0.24-5.66-0.39-8.48c-0.15-2.84-0.17-2.93-2.79-2.77c-5.01,0.31-10.04,0.5-15.01,1.14c-7.42,0.96-14.87,1.15-22.33,1.34
	c-3.9,0.1-6.57-1.65-8.73-4.66c-2.17-3.03-4.38-6.03-7.88-7.73c-0.34-0.17-0.61-0.56-0.96-0.62c-7.67-1.39-12.66-8.13-20.08-10.04
	c-1.45-0.37-1.38-0.65-3.08-2.92c1.58-0.79,2.93-0.13,4.36,0.32c2.2,0.7,2.74,0.34,3.01-1.98c0.25-2.17,0.28-4.35,0.11-6.55
	c-0.45-6.03-0.61-12.07-1.52-18.06c-0.42-2.75-1.4-5.17-3.52-7.08c-0.92-0.83-1.99-1.52-2.12-3.05c-0.12-1.47-1.58-1.51-2.69-1.62
	c-3.2-0.31-6.41-0.52-9.62-0.79c-1.02-0.09-2.06-0.13-3.05-0.37c-1.55-0.38-2.44-1.38-2.28-3.07c0.09-0.89,0.11-1.81,0.32-2.68
	c1.95-8.3,2.21-16.81,3.22-25.22c0.08-0.63,0.03-1.29-0.05-1.92c-0.14-1.12-0.82-1.58-1.9-1.26c-2.09,0.62-4.19,1.24-6.24,1.96
	c-6.4,2.24-12.96,2.41-19.62,1.58c4.06-0.89,8.05-1.96,12.05-2.94c8.34-2.04,11.79-6.31,12.33-14.9c0.2-3.09,0.15-6.17-0.07-9.25
	c-0.12-1.68-0.24-3.32-1.61-4.6c-0.43-0.4-0.7-1.08-0.84-1.68c-0.78-3.31-0.32-6.52,0.9-10.25c2.07,2.91,2.57,5.72,3.01,8.58
	c0.98,6.35,1.99,12.69,3.03,19.03c0.16,1,0.55,1.97,0.88,2.93c0.48,1.4,1.1,2.58,2.95,2.45c1.5-0.11,1.8,0.83,1.21,1.99
	c-0.71,1.4-1.06,2.87-1.34,4.4c-0.38,2.1-0.21,4.14,0.66,6.05c2.23,4.88,2.71,10.16,3.47,15.34c0.92,6.29,0.19,7.87,8.88,9.01
	c1.4,0.18,2.82,0.27,4.19,0.59c2.42,0.57,4.6,1.49,5.74,4.03c0.46,1.02,1.3,1.94,2.16,2.69c1.36,1.19,3.1,0.64,3.6-1.1
	c0.25-0.85,0.2-1.78,0.28-2.67c0.09-0.89-0.01-1.85,0.3-2.65c0.46-1.18,1.17-2.58,2.77-2.07c1.36,0.43,1.17,1.69,0.96,2.93
	c-0.42,2.46-1.66,4.6-2.69,6.76c-3.47,7.24-4.05,14.83-2.93,22.57c0.38,2.66,0.61,5.35,1.14,8c0.45,2.26,1.36,4.27,3.04,5.67
	c3.76,3.1,7.65,6.14,12.86,6.29c1.62,0.05,2.78,0.72,3.49,1.99c0.94,1.67,2.13,3.17,2.95,4.95c1.42,3.09,3.82,5.21,7.42,5.31
	c10.8,0.29,21.62,0.65,32.34-1.18c0.76-0.13,1.53-0.25,2.26-0.49c2.9-0.96,3.75-1.97,3.79-5.02c0.06-4.76-0.06-9.52-0.08-14.28
	c-0.01-1.79-0.2-3.6,0.48-5.86c1.23,1.44,1.2,2.88,1.29,4.29c0.42,6.55,0.82,13.09,1.27,19.64c0.22,3.13,0.28,3.21,3.37,2.93
	c11.02-1.01,22.07-1.61,33.12-2.28c9-0.55,18-0.64,27.01-0.58c7.07,0.05,14.15,0.15,21.2-0.76c2.48-0.32,4.78-1,6.91-2.22
	c4.24-2.45,8.91-3.93,13.3-6.03c0.46-0.22,0.95-0.42,1.95,0.11c-3.59,3.26-6.22,7.5-11.9,7.11c-0.84-0.06-1.95,0.16-2.55,0.69
	c-3.89,3.41-8.76,3.65-13.44,3.93c-16.44,0.98-32.9,1.71-49.35,2.49c-7.07,0.34-14.15,0.56-21.22,0.87
	c-2.94,0.13-3.04,0.16-3.18,3.06c-0.27,5.51-0.86,11.05,0.4,16.52c0.32,1.38,0.01,2.48-1.06,3.47c-1.11,1.02-2.09,2.19-3.32,3.49
	c1.23,0.9,2.4,0.47,3.45,0.53c1.62,0.08,2.53,0.72,1.92,2.42c-1.73,4.82-1.63,9.8-1.73,14.83c-0.08,4.19-0.82,8.43-2.78,12.32
	c-0.94,1.87-1.81,3.69-4.11,4.27c-1.64,0.41-1.62,1.83-1.57,3.12c0.13,3.09,0.55,6.15,1.34,9.14c3.77,14.34,6.23,28.87,6.32,43.74
	c0.04,5.81,1.13,11.51,1.78,17.26c0.42,3.75,1.36,4.49,5.05,5.26c3.84,0.8,7.69,0.41,11.53-0.04c4.23-0.5,8.47-0.73,12.72-0.59
	c1.47,0.05,3.15-0.28,4.1,1.45c0.15,0.27,0.74,0.58,0.98,0.49c3.86-1.56,7.1,1.65,10.88,1.31c3.7-0.33,7.45-0.37,11.17-0.63
	c8.25-0.58,16.47-0.18,24.59,1.45c3.26,0.66,6.4,1.88,9.76,2.16c2.45,0.21,4.27-0.14,5.8-2.6c2.52-4.07,10.26-5.4,14.65-2.71
	c2.93,1.79,5.95,2.29,9.22,1.81c4.35-0.64,8.6-0.88,13,0.24c3.34,0.86,6.9,0.33,10.36-0.16c8.39-1.2,16.65-3.4,25.22-3.13
	c3.47,0.11,6.95,0.11,10.42,0.2c9.92,0.26,19.8,0.09,29.57-2.03c3.02-0.66,6.1-0.95,8.84,1.29c1.03,0.84,2.46,0.59,3.73,0.26
	c2.48-0.64,4.8-1.78,7.2-2.6c7.44-2.56,8.24-2.24,9.98,5.35c0.5,2.17,0.65,4.55-0.39,6.45c-2.17,3.97-1.7,7.99-0.76,12
	c0.79,3.35,1.46,6.79,3.23,9.82c1.25,2.15,2.14,2.65,4.42,1.82c6.37-2.3,13.06-2.71,19.66-3.68c3.68-0.54,7.36-1.19,10.99-2.02
	c7.08-1.61,10.39-6.97,12.74-13.2c-1.15-3.07,0.28-5.14,2.51-7.1c0.84-0.74,0.51-2.22,0.44-3.36c-0.24-3.58,1.36-6.13,4.23-8.09
	c1.05-0.72,1.99-1.6,2.93-2.47c4.07-3.81,4.96-7.63,2.99-12.89c-0.81-2.16-1.8-4.26-2.54-6.45c-0.57-1.69-1.27-3.48-1.23-5.22
	c0.06-3.27-0.57-6.05-3.2-8.24c-0.9-0.75-0.81-1.88,0.04-2.75c1.25-1.29,2.46-2.64,3.86-3.74c2.72-2.13,3.9-4.5,2.6-8.02
	c-1.24-3.36-2-6.9-3.05-10.34c-1.62-5.33-0.58-10.19,2.74-14.52c4.05-5.29,8.25-10.46,12.42-15.66c0.79-0.98,1.6-2.03,3.11-2.18
	c0.4,3.1-1.56,5.38-2.82,7.78c-1.71,3.26-3.66,6.47-6.7,8.76c-1.74,1.31-2.03,3.18-2.06,5.15c-0.07,4.39,0.4,8.74,1.22,13.03
	c0.7,3.68,1.02,7.37,1.24,11.1c0.19,3.21-0.96,5.69-3.18,7.89c-2.94,2.92-3.03,3.26-1.31,6.99c2.94,6.38,4.38,13.16,5.32,20.02
	c0.61,4.44-1.48,8.24-4.27,11.57c-2.55,3.04-5.17,5.9-5.97,10.1c-0.38,2.01-2.05,3.77-3.17,5.63c-2.25,3.74-4.17,7.63-5.53,11.8
	c-0.87,2.66-0.21,4.77,1.68,6.65c2.98,2.97,6.24,5.66,8.16,9.59c0.78,1.59,2.53,2.56,4.26,3.15c3.77,1.28,7.53,2.48,11.66,1.98
	c3.93-0.47,4.67,0.41,4.66,4.51c0,0.51-0.02,1.03-0.01,1.54c0.05,4.49,1.27,6.09,5.64,6.81c3.3,0.55,6.64,0.79,9.99,0.86
	c14.94,0.3,29.85-0.76,44.78-0.94c8.37-0.1,16.73-0.18,25.09,0.1c2.07,0.07,4.15,0.14,6.05,1c4.51,2.04,9.38,2.64,14.14,3.7
	c3,0.67,5.97,1.51,8.96,2.24c3.44,0.84,5.43,3.14,6.64,6.34c1.59,4.21,3.35,8.34,6.32,11.81c0.41,0.48,0.74,1.1,1.25,1.44
	c3.43,2.3,4.21,5.65,3.87,9.47c-0.29,3.18-0.6,6.36-0.99,10.45c-1.14-2.48-1.08-4.27-1.1-5.93c-0.07-4.77-1.89-8.79-5.12-12.11
	c-3.95-4.06-6.28-9.01-8.33-14.15c-0.48-1.21-1.02-2.3-1.83-3.34c-0.98-1.26-1.94-2.07-3.56-1.23c-1.37,0.71-2.44,0.49-3.24-0.91
	c-0.76-1.31-2.14-1.35-3.41-1.38c-3.88-0.09-7.61-0.8-11.36-1.88c-4.72-1.36-9.68-1.36-14.56-1.49c-22.65-0.58-45.3,0.49-67.95,0.54
	c-4.45,0.01-5.07,0.63-6.51,4.82c-0.93-0.63-1.23-1.67-1.5-2.62c-0.5-1.76-1.62-2.94-3.17-3.67c-3.34-1.57-4.92-4.31-5.61-7.79
	c-0.67-3.38-1.13-3.8-4.61-3.8c-5.47,0-9.89-2.29-13.79-5.89c-0.85-0.78-1.43-1.71-2-2.74c-1.96-3.54-5.01-6.15-8.28-8.44
	c-1.72-1.21-3.84-1.47-5.93-1.33c-5.9,0.4-11.76,1.09-17.55,2.42c-3.75,0.86-7.58,1.38-11.37,2.11c-2.27,0.44-4.48,0.99-6.62,1.98
	c-2.48,1.15-4.84,2.27-5.64,5.28c-1.14-0.8-0.91-1.78-1.01-2.57c-0.81-6.5-2.35-12.9-2.47-19.49c-0.07-3.57-0.58-7.11,1.47-10.47
	c0.92-1.52,0.67-3.56,0.21-5.3c-0.49-1.84-1.73-3.16-3.81-3.27c-1.41-0.07-2.84-0.15-4.24-0.02c-7.82,0.68-15.61,1.58-23.31,3.11
	c-0.88,0.17-2.04,0.27-2.51,0.85c-1.98,2.43-4.41,1.81-6.69,1.03c-2.49-0.86-5.01-1.09-7.58-1.21c-7.46-0.35-14.92-0.31-22.39-0.08
	c-4.02,0.12-7.97,0.5-11.79,1.73c-5.96,1.93-12.08,2.44-18.28,2.41c-9.41-0.04-18.77,0.66-28.05,2.22
	c-5.82,0.98-10.25,3.89-12.35,9.73c-0.63,1.74-0.76,3.49-0.78,5.3c-0.09,8.52,1.11,16.95,1.96,25.38
	c1.13,11.24,2.76,22.44,4.52,33.61c1.24,7.85,3.01,15.63,4.65,23.41c0.5,2.37,1.16,4.78,2.49,6.83c1.07,1.65,0.87,3.09,0.13,4.71
	c-0.7,1.53-1.63,2.89-2.57,4.27c-1.87,2.72-3.41,5.64-5.15,9.5c-0.93-3.03-0.14-4.96,0.87-6.76c0.74-1.33,1.72-2.55,2.75-3.69
	c2-2.21,2.11-4.56,0.76-7.09c-3.24-6.04-4.98-12.6-6.59-19.2c-1.82-7.48-3.74-14.94-5.34-22.47c-1.46-6.91-2.5-13.91-3.82-20.85
	c-2.24-11.74-3.22-23.67-5.33-35.43c-0.33-1.85,0.49-4.25-1.25-5.39c-1.4-0.92-3.45-0.81-5.2-1.21c-8.67-1.99-17.32-1.81-26.05-0.23
	c-4.04,0.73-8.21,0.95-12.31,0.43c-9.87-1.25-19.77-1.13-29.68-0.84c-12.48,0.37-24.96,0.77-37.43,1.16c-0.9,0.03-1.8,0.07-2.7,0.1
	c-1.17,0.04-1.57,0.61-1.3,1.75c1.57,6.62,3.05,13.24,4.17,19.96c1.03,6.16,1.27,12.21,0.07,18.38c-1.2,6.15-2.04,12.37-3.05,18.7
	c-1.59-0.85-1.42-2.26-1.56-3.47c-0.48-3.99-0.09-7.96,0.59-11.9c1.19-6.86,2.42-13.79,0.52-20.66c-1.85-6.67-4.22-13.18-6.34-19.78
	c-0.55-1.72-1.88-1.43-3.15-1.36c-7.32,0.39-14.64,0.92-21.97,1.16c-13.12,0.42-26.3,0.87-39.31-1.04
	c-4.66-0.68-8.8-0.55-13.07,1.15c-2.23,0.89-4.52,0.87-6.65-0.54c-2.65-1.75-5.68-2.39-8.76-2.75c-5.88-0.69-11.79-1.06-17.72-0.91
	c-3.37,0.08-6.39,0.84-8.26,3.99c-2.23,3.74-5.59,4.37-9.65,3.89c-4.46-0.53-8.94-0.66-13.44,0.29c-3.35,0.7-6.77-0.23-9.78-1.59
	c-6.06-2.75-12.36-3.44-18.84-3.1c-6.81,0.36-13.6,1.06-20.41,1.47c-3.98,0.24-7.98,0.4-11.96,0.22c-4.16-0.19-7.09,1.78-9.69,4.61
	c-2.25,2.45-4.33,5.03-6.92,7.16c-2.07,1.7-4.39,2.66-6.98,3.02c-7.67,1.06-15.07,3.06-22.29,5.85c-1.78,0.69-3.74,0.92-5.63,1.27
	c-8.71,1.64-17.36,3.67-26.25,4.17c-2.43,0.14-4.88,0.53-7.24-0.43C0,315.96,0,315.71,0,315.45z"/>
<path d="M504.6,321.59c-1.8-1.63-1.01-3.52-1.29-5.69C505.28,318,505.28,318,504.6,321.59z"/>
</svg>
